<?xml version="1.0" standalone="no"?>
<!DOCTYPE svg PUBLIC "-//W3C//DTD SVG 20010904//EN"
 "http://www.w3.org/TR/2001/REC-SVG-20010904/DTD/svg10.dtd">
<svg version="1.0" xmlns="http://www.w3.org/2000/svg"
 width="378.000000pt" height="446.000000pt" viewBox="0 0 378.000000 446.000000"
 preserveAspectRatio="xMidYMid meet">

<g transform="translate(0.000000,446.000000) scale(0.100000,-0.100000)"
fill="#000000" stroke="none">
<path d="M874 4444 c-49 -24 -105 -87 -115 -130 -11 -50 -12 -159 0 -182 5 -9
19 -40 31 -68 12 -29 33 -64 46 -79 34 -40 30 -56 -21 -88 -54 -35 -60 -53
-51 -161 8 -81 8 -188 1 -194 -11 -11 -95 75 -99 102 -1 8 -7 20 -13 27 -6 8
-13 27 -15 44 -2 22 -11 34 -33 44 -16 8 -33 19 -37 26 -29 48 -45 58 -81 51
-37 -7 -37 -7 -23 -35 11 -21 12 -31 4 -39 -9 -9 -9 -18 -1 -34 6 -13 14 -36
18 -52 11 -50 41 -84 83 -91 34 -6 41 -13 97 -108 63 -107 124 -167 170 -167
29 0 62 40 71 86 13 71 49 34 84 -86 12 -41 26 -88 32 -105 5 -16 25 -77 44
-134 l34 -103 -15 -87 c-35 -207 -44 -488 -20 -602 9 -40 13 -80 9 -89 -3 -8
-5 -81 -5 -161 1 -81 -4 -182 -10 -225 -6 -44 -12 -89 -14 -102 -1 -12 -4 -24
-6 -27 -2 -2 -33 -36 -69 -75 -71 -79 -88 -91 -140 -99 -30 -5 -35 -10 -38
-36 -4 -53 7 -60 118 -63 95 -4 103 -2 140 22 49 32 50 32 50 1 0 -24 2 -25
75 -25 l75 0 0 95 c0 72 -4 102 -16 121 -24 36 -13 168 28 329 31 121 33 138
28 245 -3 63 -4 117 -3 119 1 2 15 -12 30 -30 15 -19 62 -68 103 -109 83 -84
224 -250 297 -350 26 -36 52 -69 58 -75 17 -14 45 -62 45 -76 0 -6 23 -38 50
-71 55 -66 55 -65 38 -120 -10 -33 -9 -41 4 -55 40 -39 105 -4 139 75 24 55
24 86 -1 141 -11 24 -20 45 -20 47 0 2 13 4 30 4 32 0 34 3 45 91 l6 45 -73
17 c-40 10 -89 17 -109 17 -24 0 -42 7 -56 23 -22 24 -84 129 -128 217 -15 30
-67 96 -115 147 -48 51 -92 103 -98 116 -6 12 -22 120 -35 240 l-25 218 30 57
c20 40 29 73 30 110 2 67 19 54 26 -20 3 -33 14 -67 30 -90 15 -23 22 -46 19
-58 -4 -15 2 -24 22 -35 15 -7 104 -101 197 -207 93 -106 215 -243 271 -304
98 -106 103 -114 103 -155 l-1 -44 234 -230 c128 -126 269 -274 312 -327 64
-80 83 -98 105 -98 15 0 33 7 40 15 16 20 69 9 98 -21 39 -41 60 -32 162 71
52 52 100 95 106 95 7 0 26 18 43 39 l31 39 -35 6 c-37 7 -44 23 -24 55 10 15
7 26 -19 62 -60 87 -532 532 -588 555 -53 22 -141 18 -201 -10 l-51 -24 -35
24 c-45 30 -61 30 -86 -2 -16 -21 -18 -30 -9 -50 6 -13 8 -27 5 -31 -4 -3 -8
-4 -10 -2 -2 2 -119 128 -260 281 -141 152 -257 280 -257 286 0 5 -9 17 -20
27 -13 12 -20 31 -20 54 0 29 -9 44 -46 82 -36 37 -50 61 -64 111 l-17 63 45
40 c61 54 102 120 102 165 0 25 -19 75 -55 149 -57 117 -124 200 -205 256 -34
24 -37 29 -25 41 15 15 10 44 -8 44 -5 0 -25 -11 -43 -25 -18 -14 -36 -25 -41
-24 -4 0 -34 31 -65 68 -52 63 -64 71 -157 111 l-101 43 0 43 c0 32 5 46 19
54 25 13 38 57 46 145 7 84 -11 123 -72 153 -21 11 -51 27 -68 36 -37 20 -51
20 -91 0z m1115 -1953 c138 -151 251 -280 251 -285 0 -15 -57 44 -319 329
-126 138 -227 254 -224 259 7 10 -12 29 292 -303z"/>
<path d="M777 895 c-51 -18 -85 -51 -98 -96 -27 -88 19 -158 140 -215 114 -54
141 -88 111 -144 -19 -36 -100 -47 -137 -17 -19 14 -16 58 4 72 17 12 17 14
-1 34 -42 46 -136 9 -136 -54 0 -88 64 -135 185 -135 154 0 245 98 201 214
-22 56 -35 67 -153 129 -77 41 -100 58 -108 81 -8 25 -6 31 18 52 34 29 80 31
107 4 21 -21 17 -50 -6 -50 -17 0 -18 -32 -2 -48 7 -7 28 -12 48 -12 49 0 80
33 80 84 0 89 -136 143 -253 101z"/>
<path d="M1226 885 c-20 -20 -10 -43 25 -58 l28 -12 -82 -195 c-78 -184 -85
-195 -112 -200 -25 -4 -30 -10 -30 -35 l0 -30 101 -3 c83 -2 103 0 114 14 20
23 1 48 -39 52 -28 3 -31 6 -25 25 22 71 16 67 112 67 l88 0 12 -33 c17 -48
15 -55 -15 -59 -24 -3 -28 -8 -28 -33 l0 -30 230 0 230 0 0 30 c0 25 -5 31
-30 35 -29 5 -30 7 -33 69 -6 118 12 116 97 -10 83 -123 83 -123 264 -127 134
-3 153 -2 164 14 19 25 -1 54 -37 54 -34 0 -36 7 -16 55 l15 35 86 0 86 0 15
-35 c19 -47 18 -53 -13 -57 -24 -3 -28 -8 -28 -33 l0 -30 109 -3 c116 -3 139
5 134 42 -2 13 -12 22 -26 24 -31 5 -39 20 -122 227 -40 99 -81 192 -92 207
-29 42 -132 64 -158 33 -16 -20 -3 -55 21 -55 11 0 22 -6 25 -14 5 -13 -123
-330 -152 -373 -17 -27 -59 -30 -92 -7 -12 8 -45 48 -73 87 -45 64 -49 73 -33
82 101 59 130 151 68 224 -42 50 -85 60 -260 62 -121 1 -159 -2 -165 -13 -16
-23 -5 -43 29 -53 l32 -9 -2 -196 -3 -195 -37 -3 c-45 -4 -37 -17 -139 231
-42 104 -85 197 -95 208 -32 36 -122 50 -148 24z m671 -87 c25 -23 31 -84 13
-118 -12 -22 -60 -40 -106 -40 l-34 0 0 89 c0 62 4 91 13 95 23 10 92 -5 114
-26z m-552 -140 c10 -29 20 -59 23 -65 3 -9 -10 -13 -45 -13 -27 0 -52 3 -55
6 -7 6 42 124 52 124 3 0 14 -24 25 -52z m1028 -1 c8 -23 18 -50 22 -59 6 -16
1 -18 -49 -18 -31 0 -56 2 -56 4 0 2 7 21 16 42 9 22 20 49 25 62 12 30 24 22
42 -31z"/>
<path d="M2834 887 c-27 -15 -16 -47 21 -63 l35 -14 -2 -193 -3 -192 -30 -5
c-25 -4 -30 -10 -30 -35 l0 -30 226 -2 c196 -2 229 0 240 13 19 23 -1 48 -40
52 -35 4 -37 9 -17 57 l15 35 86 0 86 0 15 -35 c19 -47 18 -53 -13 -57 -24 -3
-28 -8 -28 -33 l0 -30 120 0 120 0 0 30 c0 23 -5 30 -25 35 -30 7 -32 11 -128
244 -55 135 -84 195 -102 208 -36 26 -122 35 -139 15 -17 -21 -5 -57 20 -57
11 0 22 -7 25 -15 5 -12 -120 -324 -152 -378 -8 -14 -23 -19 -57 -19 -25 0
-51 3 -57 7 -6 4 -10 76 -10 199 l0 192 33 9 c35 11 51 50 24 61 -24 9 -217
10 -233 1z m530 -229 c10 -29 21 -59 23 -65 4 -10 -10 -13 -51 -13 -31 0 -56
2 -56 4 0 12 53 126 59 126 3 0 15 -24 25 -52z"/>
<path d="M170 871 c-14 -27 -13 -134 2 -149 16 -16 53 -15 65 1 6 6 13 29 17
49 7 39 29 58 66 58 20 0 20 -3 18 -202 l-3 -203 -25 -3 c-35 -5 -44 -16 -36
-47 l7 -26 122 3 122 3 0 30 c0 25 -5 31 -30 35 l-30 5 -3 203 -2 202 25 0
c30 0 65 -32 65 -61 0 -33 19 -59 43 -59 36 0 47 20 47 83 0 102 12 97 -240
97 -207 0 -220 -1 -230 -19z"/>
</g>
</svg>
